<svg xmlns="http://www.w3.org/2000/svg" width="29" height="28" viewBox="0 0 29 28" fill="none">
  <path d="M24.4303 2.8H21.6303V1.4C21.6303 1.0287 21.4828 0.672601 21.2203 0.41005C20.9577 0.1475 20.6016 0 20.2303 0C19.859 0 19.5029 0.1475 19.2404 0.41005C18.9778 0.672601 18.8303 1.0287 18.8303 1.4V2.8H10.4303V1.4C10.4303 1.0287 10.2828 0.672601 10.0203 0.41005C9.75771 0.1475 9.40161 0 9.03031 0C8.65901 0 8.30291 0.1475 8.04036 0.41005C7.77781 0.672601 7.63031 1.0287 7.63031 1.4V2.8H4.83031C3.7164 2.8 2.64811 3.2425 1.86046 4.03015C1.07281 4.8178 0.63031 5.88609 0.63031 7V23.8C0.63031 24.9139 1.07281 25.9822 1.86046 26.7698C2.64811 27.5575 3.7164 28 4.83031 28H24.4303C25.5442 28 26.6125 27.5575 27.4002 26.7698C28.1878 25.9822 28.6303 24.9139 28.6303 23.8V7C28.6303 5.88609 28.1878 4.8178 27.4002 4.03015C26.6125 3.2425 25.5442 2.8 24.4303 2.8ZM25.8303 23.8C25.8303 24.1713 25.6828 24.5274 25.4203 24.7899C25.1577 25.0525 24.8016 25.2 24.4303 25.2H4.83031C4.45901 25.2 4.10291 25.0525 3.84036 24.7899C3.57781 24.5274 3.43031 24.1713 3.43031 23.8V14H25.8303V23.8ZM25.8303 11.2H3.43031V7C3.43031 6.6287 3.57781 6.2726 3.84036 6.01005C4.10291 5.7475 4.45901 5.6 4.83031 5.6H7.63031V7C7.63031 7.3713 7.77781 7.7274 8.04036 7.98995C8.30291 8.2525 8.65901 8.4 9.03031 8.4C9.40161 8.4 9.75771 8.2525 10.0203 7.98995C10.2828 7.7274 10.4303 7.3713 10.4303 7V5.6H18.8303V7C18.8303 7.3713 18.9778 7.7274 19.2404 7.98995C19.5029 8.2525 19.859 8.4 20.2303 8.4C20.6016 8.4 20.9577 8.2525 21.2203 7.98995C21.4828 7.7274 21.6303 7.3713 21.6303 7V5.6H24.4303C24.8016 5.6 25.1577 5.7475 25.4203 6.01005C25.6828 6.2726 25.8303 6.6287 25.8303 7V11.2Z" fill="#3498DB"/>
</svg>