<svg xmlns="http://www.w3.org/2000/svg" width="32" height="30" viewBox="0 0 32 30" fill="none">
  <path d="M15.6076 11.8889C16.3536 11.8889 17.0923 11.7481 17.7816 11.4745C18.4708 11.2008 19.097 10.7998 19.6245 10.2942C20.152 9.78868 20.5705 9.18849 20.856 8.52794C21.1414 7.86739 21.2884 7.15942 21.2884 6.44444C21.2884 5.72947 21.1414 5.0215 20.856 4.36095C20.5705 3.7004 20.152 3.1002 19.6245 2.59464C19.097 2.08908 18.4708 1.68804 17.7816 1.41443C17.0923 1.14082 16.3536 1 15.6076 1C14.101 1 12.6561 1.57361 11.5907 2.59464C10.5254 3.61567 9.92689 5.00049 9.92689 6.44444C9.92689 7.8884 10.5254 9.27322 11.5907 10.2942C12.6561 11.3153 14.101 11.8889 15.6076 11.8889ZM1 28.0667V29H30.2153V28.0667C30.2153 24.5822 30.2153 22.84 29.5076 21.5084C28.8852 20.3377 27.892 19.3859 26.6705 18.7893C25.2811 18.1111 23.4633 18.1111 19.8276 18.1111H11.3877C7.75197 18.1111 5.93413 18.1111 4.54479 18.7893C3.32324 19.3859 2.33009 20.3377 1.70766 21.5084C1 22.84 1 24.5822 1 28.0667Z" stroke="#F39C12" stroke-width="2" stroke-linecap="round" stroke-linejoin="round"/>
</svg>

