<svg xmlns="http://www.w3.org/2000/svg" width="31" height="27" viewBox="0 0 31 27" fill="none">
  <path d="M15.6303 0C23.9148 0 30.6303 6.04395 30.6303 13.5C30.6303 20.9561 23.9148 27 15.6303 27C7.34581 27 0.63031 20.9561 0.63031 13.5C0.63031 6.04395 7.34581 0 15.6303 0ZM15.6303 2.7C12.4477 2.7 9.39546 3.83785 7.14503 5.86325C4.89459 7.88864 3.63031 10.6357 3.63031 13.5C3.63031 16.3643 4.89459 19.1114 7.14503 21.1368C9.39546 23.1621 12.4477 24.3 15.6303 24.3C18.8129 24.3 21.8652 23.1621 24.1156 21.1368C26.366 19.1114 27.6303 16.3643 27.6303 13.5C27.6303 10.6357 26.366 7.88864 24.1156 5.86325C21.8652 3.83785 18.8129 2.7 15.6303 2.7ZM15.6303 5.4C15.9977 5.40004 16.3523 5.52144 16.6269 5.74117C16.9014 5.96089 17.0768 6.26366 17.1198 6.59205L17.1303 6.75V12.9411L21.1908 16.5956C21.4598 16.8385 21.616 17.1645 21.6277 17.5073C21.6393 17.8502 21.5055 18.1841 21.2534 18.4414C21.0014 18.6986 20.65 18.8599 20.2706 18.8924C19.8912 18.925 19.5123 18.8263 19.2108 18.6165L19.0698 18.5044L14.5698 14.4544C14.3367 14.2445 14.187 13.9712 14.1438 13.6768L14.1303 13.5V6.75C14.1303 6.39196 14.2883 6.04858 14.5697 5.79541C14.851 5.54223 15.2325 5.4 15.6303 5.4Z" fill="#27AE60"/>
</svg>